# xmcd
#
# Track frame offsets:
#	150
#	16702
#	36217
#	54985
#	73952
#	91465
#	110555
#	124085
#	140487
#	156117
#	172550
#	192000
#	204557
#	221355
#	235802
#	249445
#	262245
#	278090
#	294960
#
# Disc length: 4091 seconds
#
# Revision: 1
# Processed by: cddbd v1.5.1PL2 Copyright (c) Steve Scherf et al.
# Submitted via: dBpowerAMP V4.0
#
DISCID=0c0ff913
DTITLE=Kenny Rogers - The Complete Collection Cd1
DYEAR=1998
DGENRE=Country
TTITLE0=Lucille
TTITLE1=Coward of The Country
TTITLE2=Islands in The Stream (With Dolly Parton)
TTITLE3=She Believes in Me
TTITLE4=Lady
TTITLE5=What About me (With James Ingram and Kim Carnes)
TTITLE6=Everytime Two Fools Collide (With Dottie West)
TTITLE7=You Decorated my Life
TTITLE8=I Don't Need You
TTITLE9=Love Will Turn You Around
TTITLE10=Sweet Music Man
TTITLE11=Goodbye Marie
TTITLE12=Love Lifted Me
TTITLE13=Love The World Away
TTITLE14=What Are we Doin' in Love (With Dottie West)
TTITLE15=Ruby Don't Take Your Love to Town
TTITLE16=The Gambler
TTITLE17=Desperado
TTITLE18=Reuben James
EXTD=
EXTT0=
EXTT1=
EXTT2=
EXTT3=
EXTT4=
EXTT5=
EXTT6=
EXTT7=
EXTT8=
EXTT9=
EXTT10=
EXTT11=
EXTT12=
EXTT13=
EXTT14=
EXTT15=
EXTT16=
EXTT17=
EXTT18=
PLAYORDER=
